<?xml version="1.0" encoding="UTF-8"?>
<svg version="1.1" viewBox="0 0 724.5 166.22" xmlns="http://www.w3.org/2000/svg" xmlns:cc="http://creativecommons.org/ns#" xmlns:dc="http://purl.org/dc/elements/1.1/" xmlns:rdf="http://www.w3.org/1999/02/22-rdf-syntax-ns#" xmlns:xlink="http://www.w3.org/1999/xlink">
<metadata>
<rdf:rdf>
<cc:work rdf:about="">
<dc:format>image/svg+xml</dc:format>
<dc:type rdf:resource="http://purl.org/dc/dcmitype/StillImage"/>
</cc:work>
</rdf:rdf>
<rdf:RDF>
<cc:Work rdf:about="">
<dc:format>image/svg+xml</dc:format>
<dc:type rdf:resource="http://purl.org/dc/dcmitype/StillImage"/>
<dc:title/>
</cc:Work>
</rdf:RDF>
</metadata>
<g transform="translate(-149.75 -384.89)">
<image x="272" y="144" width="480" height="480" display="none" xlink:href=""/>
<image display="none" xlink:href=""/>
<g fill="#28c1a9" stroke="#28c1a9" stroke-miterlimit="2" stroke-width="0" style="font-variant-ligatures:none">
<path transform="matrix(2.27 0 0 2.27 -680.72 514.01)" d="m398.25-54.36c-2.88-1.656-6.336-2.52-10.44-2.52-3.816 0-7.272 0.648-10.296 1.8s-5.472 2.88-7.2 5.112-2.592 4.896-2.592 7.92c0 4.392 1.656 8.064 5.112 10.944 3.384 2.88 8.064 4.608 14.04 5.184 4.32 0.432 7.488 1.656 9.648 3.6 2.088 1.944 3.168 4.248 3.168 6.984 0 2.88-1.296 5.184-3.744 6.84-2.52 1.656-5.544 2.448-9.144 2.448-3.096 0-5.904-0.648-8.424-1.944-2.592-1.296-4.248-2.88-5.112-4.752-0.36-0.72-0.864-1.368-1.584-1.8s-1.44-0.72-2.16-0.72c-0.36 0-0.576 0.072-0.72 0.072-0.936 0.216-1.656 0.576-2.16 1.152-0.576 0.576-0.792 1.152-0.792 1.872 0 0.432 0.072 0.864 0.36 1.44 1.44 3.456 4.032 6.192 7.848 8.28 3.816 2.16 8.064 3.168 12.744 3.168 3.528 0 6.84-0.576 9.936-1.8s5.616-3.096 7.488-5.544 2.808-5.472 2.808-8.928c0-4.752-1.584-8.568-4.752-11.448s-7.632-4.68-13.392-5.256c-5.184-0.504-8.784-1.584-10.8-3.312-2.016-1.656-3.024-3.744-3.024-6.264 0-2.664 1.08-4.68 3.384-6.12 2.232-1.44 5.184-2.16 8.856-2.16 2.952 0 5.4 0.576 7.344 1.728s3.6 2.736 4.896 4.896c0.288 0.648 0.792 1.152 1.44 1.512 0.576 0.36 1.296 0.504 2.016 0.504s1.296-0.144 1.872-0.504c0.936-0.648 1.44-1.512 1.44-2.592 0-0.792-0.288-1.656-0.864-2.592-2.016-3.096-4.392-5.472-7.2-7.2z" style="font-variant-ligatures:none"/>
<path transform="matrix(2.27 0 0 2.27 -669.37 514.01)" d="m419.45-38.376c-0.72 0.72-1.008 1.584-1.008 2.664v32.04c0 1.08 0.288 1.944 1.008 2.664s1.584 1.008 2.664 1.008 1.944-0.288 2.664-1.008c0.648-0.72 1.008-1.584 1.008-2.664v-32.04c0-1.08-0.36-1.944-1.008-2.664-0.72-0.648-1.584-1.008-2.664-1.008s-1.944 0.36-2.664 1.008z" style="font-variant-ligatures:none"/>
<path transform="matrix(2.27 0 0 2.27 -658.02 514.01)" d="m467.53-37.08c-3.024-1.728-6.408-2.592-10.152-2.592-3.888 0-7.272 0.864-10.296 2.592s-5.4 4.032-7.056 7.056c-1.728 3.024-2.52 6.48-2.52 10.368s0.72 7.272 2.304 10.296 3.744 5.4 6.552 7.128 5.976 2.52 9.576 2.52c3.024 0 5.832-0.72 8.28-2.232 2.448-1.44 4.392-3.528 5.904-6.192v3.528c0 3.024-0.576 5.688-1.728 7.848s-2.736 3.816-4.608 4.968c-1.944 1.152-4.104 1.656-6.408 1.656-2.52 0-4.752-0.432-6.696-1.296-2.016-0.864-3.6-2.16-4.896-3.888-0.792-1.008-1.8-1.512-2.952-1.512-0.72 0-1.368 0.216-2.016 0.648-1.008 0.72-1.512 1.584-1.512 2.592 0 0.72 0.216 1.368 0.792 2.016 2.016 2.592 4.464 4.536 7.488 5.904 2.952 1.368 6.192 2.016 9.648 2.016 3.816 0 7.272-0.864 10.296-2.664s5.4-4.248 7.128-7.416c1.656-3.096 2.52-6.552 2.52-10.368v-15.552c0-3.888-0.864-7.344-2.592-10.368s-4.032-5.328-7.056-7.056zm-3.6 29.16c-1.944 1.152-4.104 1.728-6.552 1.728s-4.68-0.576-6.624-1.728-3.456-2.736-4.536-4.752c-1.152-2.016-1.656-4.392-1.656-6.984s0.504-4.896 1.656-6.984c1.08-2.016 2.592-3.672 4.536-4.824s4.176-1.728 6.624-1.728 4.608 0.576 6.552 1.728 3.456 2.808 4.536 4.824c1.08 2.088 1.656 4.392 1.656 6.984s-0.576 4.968-1.656 6.984-2.592 3.6-4.536 4.752z" style="font-variant-ligatures:none"/>
<path transform="matrix(2.27 0 0 2.27 -646.67 514.01)" d="m522.88-31.248c-1.512-2.736-3.6-4.896-6.192-6.336-2.52-1.296-5.256-2.016-8.28-2.088-0.072 0-0.216-0.072-0.216-0.072h-16.56c-1.008 0-1.8 0.36-2.448 1.008-0.72 0.72-1.008 1.512-1.008 2.448v0.288 0.288 32.112c0 1.08 0.288 1.944 1.008 2.664s1.584 1.008 2.664 1.008 1.944-0.288 2.664-1.008c0.648-0.72 1.008-1.584 1.008-2.664v-20.304c0-1.728 0.432-3.24 1.368-4.68 0.936-1.368 2.232-2.448 3.888-3.312 1.656-0.792 3.528-1.224 5.544-1.224 3.456 0 6.192 1.008 8.28 3.024s3.168 4.968 3.168 8.784v17.712c0 1.08 0.288 1.944 1.008 2.664s1.584 1.008 2.664 1.008c1.008 0 1.872-0.288 2.592-1.008s1.08-1.584 1.08-2.664v-17.712c0-3.888-0.792-7.2-2.232-9.936z" style="font-variant-ligatures:none"/>
<path transform="matrix(2.27 0 0 2.27 -635.32 514.01)" d="m574.91-19.656c0-3.672-0.936-7.128-2.664-10.152s-4.104-5.472-7.128-7.2-6.336-2.664-10.008-2.664c-3.744 0-7.128 0.936-10.152 2.664s-5.4 4.176-7.128 7.2-2.592 6.408-2.592 10.152 0.792 7.2 2.376 10.224 3.816 5.4 6.624 7.128c2.88 1.8 5.976 2.664 9.432 2.664h17.784c0.936 0 1.728-0.36 2.448-1.008 0.648-0.648 1.008-1.44 1.008-2.448v-0.504zm-30.96 6.912c-1.152-2.016-1.656-4.32-1.656-6.912 0-2.52 0.504-4.824 1.656-6.912 1.152-2.016 2.664-3.672 4.608-4.824s4.104-1.8 6.552-1.8c2.376 0 4.536 0.648 6.48 1.8s3.456 2.808 4.608 4.824c1.08 2.088 1.656 4.392 1.656 6.912 0 2.592-0.576 4.896-1.656 6.912-1.152 2.016-2.664 3.672-4.608 4.824s-4.104 1.728-6.48 1.728c-2.448 0-4.608-0.576-6.552-1.728s-3.456-2.808-4.608-4.824z" style="font-variant-ligatures:none"/>
<path transform="matrix(2.27 0 0 2.27 -623.97 514.01)" d="m587.71-55.152c-0.72 0.72-1.08 1.584-1.08 2.664v33.624c0 3.888 0.936 7.344 2.952 10.368s4.752 5.4 8.352 7.128 7.632 2.52 12.24 2.52c4.392 0 8.352-0.792 11.808-2.52s6.192-4.104 8.136-7.128 2.952-6.48 2.952-10.368v-33.624c0-1.08-0.36-1.944-1.08-2.664s-1.584-1.08-2.592-1.08c-1.08 0-1.944 0.36-2.664 1.08s-1.08 1.584-1.08 2.664v33.624c0 2.592-0.72 4.824-2.016 6.84s-3.168 3.6-5.472 4.752c-2.376 1.152-5.04 1.656-7.992 1.656-3.168 0-5.904-0.504-8.352-1.656s-4.32-2.736-5.688-4.752-2.016-4.248-2.016-6.84v-33.624c0-1.08-0.36-1.944-1.08-2.664s-1.584-1.08-2.664-1.08-1.944 0.36-2.664 1.08z" style="font-variant-ligatures:none"/>
<path transform="matrix(2.27 0 0 2.27 -612.62 514.01)" d="m648.6-55.152c-0.72 0.72-1.08 1.584-1.08 2.664v48.744c0 1.08 0.36 1.944 1.08 2.664s1.584 1.08 2.664 1.08 1.944-0.36 2.664-1.08 1.08-1.584 1.08-2.664v-48.744c0-1.08-0.36-1.944-1.08-2.664s-1.584-1.08-2.664-1.08-1.944 0.36-2.664 1.08z" style="font-variant-ligatures:none"/>
</g>
</g>
</svg>